{"title":"Besharam 2013 Hindi Movies HDDVDScr XviD New Source with Sample ","uid":8990992,"size":741513440,"categoryP":"video","categoryS":"movies","magnet":"?xt=urn:btih:547d13d30134ee5e6639c5fbfda4891c3c3812d2&amp;dn=Besharam+2013+Hindi+Movies+HDDVDScr+XviD+New+Source+with+Sample+&amp;tr=udp%3A%2F%2Ftracker.openbittorrent.com%3A80&amp;tr=udp%3A%2F%2Fopen.demonii.com%3A1337&amp;tr=udp%3A%2F%2Ftracker.coppersurfer.tk%3A6969&amp;tr=udp%3A%2F%2Fexodus.desync.com%3A6969","seeders":1,"leechers":0,"uploader":"basicssom","files":2,"time":1380779569,"description":" &lt;a href=&quot;http://s5.postimg.org/hgeuxszk7/logo.png&quot; rel=&quot;nofollow&quot; target=&quot;_NEW&quot;&gt;http://s5.postimg.org/hgeuxszk7/logo.png&lt;/a&gt;\n\nBesharam 2013 Hindi Movies HDDVDScr XviD New Source with Sample ~ â˜»rDXâ˜»\n\nPlease check SCREEN SHOTS first :\n &lt;a href=&quot;\nhttp://myimghosting.serveftp.com/13/Besharam.html&quot; rel=&quot;nofollow&quot; target=&quot;_NEW&quot;&gt;\nhttp://myimghosting.serveftp.com/13/Besharam.html&lt;/a&gt;\n &lt;a href=&quot;\nhttp://myimghost.cwahi.net/Besharam.html&quot; rel=&quot;nofollow&quot; target=&quot;_NEW&quot;&gt;\nhttp://myimghost.cwahi.net/Besharam.html&lt;/a&gt;\n\nAll rDX torrents are Seeding From the 1Gbps Seedbox 24X7\n &lt;a href=&quot;\nhttp://s5.postimg.org/vlrndaznr/B_Id_406623_ranbir_kapoor_besharam.jpg&quot; rel=&quot;nofollow&quot; target=&quot;_NEW&quot;&gt;\nhttp://s5.postimg.org/vlrndaznr/B_Id_406623_ranbir_kapoor_besharam.jpg&lt;/a&gt;\n &lt;a href=&quot;\nhttp://s5.postimg.org/xg4hv1mo7/besharam.jpg&quot; rel=&quot;nofollow&quot; target=&quot;_NEW&quot;&gt;\nhttp://s5.postimg.org/xg4hv1mo7/besharam.jpg&lt;/a&gt;\n &lt;a href=&quot;\nhttp://s5.postimg.org/6498tphxj/Besharam_movie_poster.jpg&quot; rel=&quot;nofollow&quot; target=&quot;_NEW&quot;&gt;\nhttp://s5.postimg.org/6498tphxj/Besharam_movie_poster.jpg&lt;/a&gt;\n\nFormat                                   : AVI\nFormat/Info                              : Audio Video Interleave\nFile size                                : 698 MiB\nDuration                                 : 2h 5mn\nOverall bit rate mode                    : Variable\nOverall bit rate                         : 776 Kbps\nWriting library                          : MPlayer\n\nVideo\nID                                       : 0\nFormat                                   : MPEG-4 Visual\nFormat profile                           : Advanced Simple@L5\nFormat settings, BVOP                    : 2\nFormat settings, QPel                    : No\nFormat settings, GMC                     : No warppoints\nFormat settings, Matrix                  : Default (H.263)\nCodec ID                                 : XVID\nCodec ID/Hint                            : XviD\nDuration                                 : 2h 5mn\nBit rate                                 : 639 Kbps\nWidth                                    : 640 pixels\nHeight                                   : 272 pixels\nDisplay aspect ratio                     : 2.35:1\nFrame rate                               : 25.000 fps\nColor space                              : YUV\nChroma subsampling                       : 4:2:0\nBit depth                                : 8 bits\nScan type                                : Progressive\nCompression mode                         : Lossy\nBits/(Pixel*Frame)                       : 0.147\nStream size                              : 575 MiB (82%)\nWriting library                          : XviD 1.2.1 (UTC 2008-12-04)\n\nAudio\nID                                       : 1\nFormat                                   : MPEG Audio\nFormat version                           : Version 1\nFormat profile                           : Layer 3\nMode                                     : Joint stereo\nMode extension                           : MS Stereo\nCodec ID                                 : 55\nCodec ID/Hint                            : MP3\nDuration                                 : 2h 5mn\nBit rate mode                            : Variable\nBit rate                                 : 124 Kbps\nChannel(s)                               : 2 channels\nSampling rate                            : 48.0 KHz\nCompression mode                         : Lossy\nStream size                              : 112 MiB (16%)\nAlignment                                : Aligned on interleaves\nInterleave, duration                     : 24 ms (0.60 video frame)\nInterleave, preload duration             : 493 ms","torrent":{"xt":"urn:btih:547d13d30134ee5e6639c5fbfda4891c3c3812d2","amp;dn":"Besharam+2013+Hindi+Movies+HDDVDScr+XviD+New+Source+with+Sample+","amp;tr":["udp%3A%2F%2Ftracker.openbittorrent.com%3A80","udp%3A%2F%2Fopen.demonii.com%3A1337","udp%3A%2F%2Ftracker.coppersurfer.tk%3A6969","udp%3A%2F%2Fexodus.desync.com%3A6969"],"infoHash":"547d13d30134ee5e6639c5fbfda4891c3c3812d2","infoHashBuffer":{"type":"Buffer","data":[84,125,19,211,1,52,238,94,102,57,197,251,253,164,137,28,60,56,18,210]},"announce":[],"urlList":[]}}